#Comment line ignore any data following # character 
#Hierarchical Translation and Rotation (.htr) file 
[Header]	
#Header keywords are followed by a single value 
FileType HTR		#Single word string
DataType HTRS		#Translation followed by rotation and scale data
FileVersion 1		#integer
NumSegments 84		#integer
NumFrames 2		#integer
DataFrameRate 30		#integer, data frame rate in this file
EulerRotationOrder ZYX
CalibrationUnits mm
RotationUnits Degrees
GlobalAxisofGravity Y
BoneLengthAxis Y
ScaleFactor 1.00
[SegmentNames&Hierarchy]
#CHILD	PARENT
MASTER GLOBAL
root MASTER
chest root
L_mid_tent01 root
R_mid_tent01 root
spine01 root
Bip01_Neck chest
L_humerus chest
R_humerus chest
weapon_bone chest
Bip01_Head Bip01_Neck
eye_left_bone Bip01_Head
eye_right_bone Bip01_Head
L_forearm L_humerus
L_front_hand L_forearm
L_weapon_bone L_forearm
L_front_hand01_01 L_front_hand
L_front_hand02_01 L_front_hand
L_front_hand03_01 L_front_hand
L_front_hand01_02 L_front_hand01_01
L_front_hand02_02 L_front_hand02_01
L_front_hand03_02 L_front_hand03_01
R_forearm R_humerus
R_front_hand R_forearm
R_weapon_bone R_forearm
R_front_hand01_01 R_front_hand
R_front_hand02_01 R_front_hand
R_front_hand03_01 R_front_hand
R_front_hand01_02 R_front_hand01_01
R_front_hand02_02 R_front_hand02_01
R_front_hand03_02 R_front_hand03_01
null_rope01_connect L_mid_tent01
Rope1_Seg01 null_rope01_connect
Rope1_Seg02 Rope1_Seg01
Rope1_Seg03 Rope1_Seg02
Rope1_Seg04 Rope1_Seg03
Rope1_Seg05 Rope1_Seg04
Rope1_Seg06 Rope1_Seg05
Rope1_Seg07 Rope1_Seg06
Rope1_Seg09 Rope1_Seg07
L_mid_hand01 Rope1_Seg09
L_mid_hand02 Rope1_Seg09
L_mid_hand03 Rope1_Seg09
null_rope02_connect R_mid_tent01
Rope2_Seg01 null_rope02_connect
Rope2_Seg02 Rope2_Seg01
Rope2_Seg03 Rope2_Seg02
Rope2_Seg04 Rope2_Seg03
Rope2_Seg05 Rope2_Seg04
Rope2_Seg06 Rope2_Seg05
Rope2_Seg07 Rope2_Seg06
Rope2_Seg09 Rope2_Seg07
R_mid_hand01 Rope2_Seg09
R_mid_hand02 Rope2_Seg09
R_mid_hand03 Rope2_Seg09
spine02 spine01
spine03 spine02
pelvis spine03
null_rope03_connect pelvis
null_rope04_connect pelvis
Rope3_Seg01 null_rope03_connect
Rope3_Seg02 Rope3_Seg01
Rope3_Seg03 Rope3_Seg02
Rope3_Seg04 Rope3_Seg03
Rope3_Seg05 Rope3_Seg04
Rope3_Seg06 Rope3_Seg05
Rope3_Seg07 Rope3_Seg06
Rope3_Seg08 Rope3_Seg07
Rope3_Seg09 Rope3_Seg08
R_rear_hand01 Rope3_Seg09
R_rear_hand02 Rope3_Seg09
R_rear_hand03 Rope3_Seg09
Rope4_Seg01 null_rope04_connect
Rope4_Seg02 Rope4_Seg01
Rope4_Seg03 Rope4_Seg02
Rope4_Seg04 Rope4_Seg03
Rope4_Seg05 Rope4_Seg04
Rope4_Seg06 Rope4_Seg05
Rope4_Seg07 Rope4_Seg06
Rope4_Seg08 Rope4_Seg07
Rope4_Seg09 Rope4_Seg08
L_rear_hand01 Rope4_Seg09
L_rear_hand02 Rope4_Seg09
L_rear_hand03 Rope4_Seg09
[BasePosition]
#SegmentName Tx, Ty, Tz, Rx, Ry, Rz, BoneLength
MASTER 0.000000 0.000000 0.000000 -90.000000 0.000000 0.000000 10.000000 
root 0.000000 0.000000 0.000000 0.000000 0.000000 0.000000 10.000000 
chest 0.000000 0.000000 0.000000 0.000000 0.000000 0.000000 10.000000 
L_mid_tent01 0.000000 0.000000 0.000000 0.000000 0.000000 0.000000 10.000000 
R_mid_tent01 0.000000 0.000000 0.000000 0.000000 0.000000 0.000000 10.000000 
spine01 0.000000 0.000000 0.000000 0.000000 0.000000 0.000000 10.000000 
Bip01_Neck 0.000000 0.000000 0.000000 0.000000 0.000000 0.000000 10.000000 
L_humerus 0.000000 0.000000 0.000000 0.000000 0.000000 0.000000 10.000000 
R_humerus 0.000000 0.000000 0.000000 0.000000 0.000000 0.000000 10.000000 
weapon_bone 0.000000 0.000000 0.000000 0.000000 0.000000 0.000000 10.000000 
Bip01_Head 0.000000 0.000000 0.000000 0.000000 0.000000 0.000000 10.000000 
eye_left_bone 0.000000 0.000000 0.000000 0.000000 0.000000 0.000000 10.000000 
eye_right_bone 0.000000 0.000000 0.000000 0.000000 0.000000 0.000000 10.000000 
L_forearm 0.000000 0.000000 0.000000 0.000000 0.000000 0.000000 10.000000 
L_front_hand 0.000000 0.000000 0.000000 0.000000 0.000000 0.000000 10.000000 
L_weapon_bone 0.000000 0.000000 0.000000 0.000000 0.000000 0.000000 10.000000 
L_front_hand01_01 0.000000 0.000000 0.000000 0.000000 0.000000 0.000000 10.000000 
L_front_hand02_01 0.000000 0.000000 0.000000 0.000000 0.000000 0.000000 10.000000 
L_front_hand03_01 0.000000 0.000000 0.000000 0.000000 0.000000 0.000000 10.000000 
L_front_hand01_02 0.000000 0.000000 0.000000 0.000000 0.000000 0.000000 10.000000 
L_front_hand02_02 0.000000 0.000000 0.000000 0.000000 0.000000 0.000000 10.000000 
L_front_hand03_02 0.000000 0.000000 0.000000 0.000000 0.000000 0.000000 10.000000 
R_forearm 0.000000 0.000000 0.000000 0.000000 0.000000 0.000000 10.000000 
R_front_hand 0.000000 0.000000 0.000000 0.000000 0.000000 0.000000 10.000000 
R_weapon_bone 0.000000 0.000000 0.000000 0.000000 0.000000 0.000000 10.000000 
R_front_hand01_01 0.000000 0.000000 0.000000 0.000000 0.000000 0.000000 10.000000 
R_front_hand02_01 0.000000 0.000000 0.000000 0.000000 0.000000 0.000000 10.000000 
R_front_hand03_01 0.000000 0.000000 0.000000 0.000000 0.000000 0.000000 10.000000 
R_front_hand01_02 0.000000 0.000000 0.000000 0.000000 0.000000 0.000000 10.000000 
R_front_hand02_02 0.000000 0.000000 0.000000 0.000000 0.000000 0.000000 10.000000 
R_front_hand03_02 0.000000 0.000000 0.000000 0.000000 0.000000 0.000000 10.000000 
null_rope01_connect 0.000000 0.000000 0.000000 0.000000 0.000000 0.000000 10.000000 
Rope1_Seg01 0.000000 0.000000 0.000000 0.000000 0.000000 0.000000 10.000000 
Rope1_Seg02 0.000000 0.000000 0.000000 0.000000 0.000000 0.000000 10.000000 
Rope1_Seg03 0.000000 0.000000 0.000000 0.000000 0.000000 0.000000 10.000000 
Rope1_Seg04 0.000000 0.000000 0.000000 0.000000 0.000000 0.000000 10.000000 
Rope1_Seg05 0.000000 0.000000 0.000000 0.000000 0.000000 0.000000 10.000000 
Rope1_Seg06 0.000000 0.000000 0.000000 0.000000 0.000000 0.000000 10.000000 
Rope1_Seg07 0.000000 0.000000 0.000000 0.000000 0.000000 0.000000 10.000000 
Rope1_Seg09 0.000000 0.000000 0.000000 0.000000 0.000000 0.000000 10.000000 
L_mid_hand01 0.000000 0.000000 0.000000 0.000000 0.000000 0.000000 10.000000 
L_mid_hand02 0.000000 0.000000 0.000000 0.000000 0.000000 0.000000 10.000000 
L_mid_hand03 0.000000 0.000000 0.000000 0.000000 0.000000 0.000000 10.000000 
null_rope02_connect 0.000000 0.000000 0.000000 0.000000 0.000000 0.000000 10.000000 
Rope2_Seg01 0.000000 0.000000 0.000000 0.000000 0.000000 0.000000 10.000000 
Rope2_Seg02 0.000000 0.000000 0.000000 0.000000 0.000000 0.000000 10.000000 
Rope2_Seg03 0.000000 0.000000 0.000000 0.000000 0.000000 0.000000 10.000000 
Rope2_Seg04 0.000000 0.000000 0.000000 0.000000 0.000000 0.000000 10.000000 
Rope2_Seg05 0.000000 0.000000 0.000000 0.000000 0.000000 0.000000 10.000000 
Rope2_Seg06 0.000000 0.000000 0.000000 0.000000 0.000000 0.000000 10.000000 
Rope2_Seg07 0.000000 0.000000 0.000000 0.000000 0.000000 0.000000 10.000000 
Rope2_Seg09 0.000000 0.000000 0.000000 0.000000 0.000000 0.000000 10.000000 
R_mid_hand01 0.000000 0.000000 0.000000 0.000000 0.000000 0.000000 10.000000 
R_mid_hand02 0.000000 0.000000 0.000000 0.000000 0.000000 0.000000 10.000000 
R_mid_hand03 0.000000 0.000000 0.000000 0.000000 0.000000 0.000000 10.000000 
spine02 0.000000 0.000000 0.000000 0.000000 0.000000 0.000000 10.000000 
spine03 0.000000 0.000000 0.000000 0.000000 0.000000 0.000000 10.000000 
pelvis 0.000000 0.000000 0.000000 0.000000 0.000000 0.000000 10.000000 
null_rope03_connect 0.000000 0.000000 0.000000 0.000000 0.000000 0.000000 10.000000 
null_rope04_connect 0.000000 0.000000 0.000000 0.000000 0.000000 0.000000 10.000000 
Rope3_Seg01 0.000000 0.000000 0.000000 0.000000 0.000000 0.000000 10.000000 
Rope3_Seg02 0.000000 0.000000 0.000000 0.000000 0.000000 0.000000 10.000000 
Rope3_Seg03 0.000000 0.000000 0.000000 0.000000 0.000000 0.000000 10.000000 
Rope3_Seg04 0.000000 0.000000 0.000000 0.000000 0.000000 0.000000 10.000000 
Rope3_Seg05 0.000000 0.000000 0.000000 0.000000 0.000000 0.000000 10.000000 
Rope3_Seg06 0.000000 0.000000 0.000000 0.000000 0.000000 0.000000 10.000000 
Rope3_Seg07 0.000000 0.000000 0.000000 0.000000 0.000000 0.000000 10.000000 
Rope3_Seg08 0.000000 0.000000 0.000000 0.000000 0.000000 0.000000 10.000000 
Rope3_Seg09 0.000000 0.000000 0.000000 0.000000 0.000000 0.000000 10.000000 
R_rear_hand01 0.000000 0.000000 0.000000 0.000000 0.000000 0.000000 10.000000 
R_rear_hand02 0.000000 0.000000 0.000000 0.000000 0.000000 0.000000 10.000000 
R_rear_hand03 0.000000 0.000000 0.000000 0.000000 0.000000 0.000000 10.000000 
Rope4_Seg01 0.000000 0.000000 0.000000 0.000000 0.000000 0.000000 10.000000 
Rope4_Seg02 0.000000 0.000000 0.000000 0.000000 0.000000 0.000000 10.000000 
Rope4_Seg03 0.000000 0.000000 0.000000 0.000000 0.000000 0.000000 10.000000 
Rope4_Seg04 0.000000 0.000000 0.000000 0.000000 0.000000 0.000000 10.000000 
Rope4_Seg05 0.000000 0.000000 0.000000 0.000000 0.000000 0.000000 10.000000 
Rope4_Seg06 0.000000 0.000000 0.000000 0.000000 0.000000 0.000000 10.000000 
Rope4_Seg07 0.000000 0.000000 0.000000 0.000000 0.000000 0.000000 10.000000 
Rope4_Seg08 0.000000 0.000000 0.000000 0.000000 0.000000 0.000000 10.000000 
Rope4_Seg09 0.000000 0.000000 0.000000 0.000000 0.000000 0.000000 10.000000 
L_rear_hand01 0.000000 0.000000 0.000000 0.000000 0.000000 0.000000 10.000000 
L_rear_hand02 0.000000 0.000000 0.000000 0.000000 0.000000 0.000000 10.000000 
L_rear_hand03 0.000000 0.000000 0.000000 0.000000 0.000000 0.000000 10.000000 
#Beginning of Data. Separated by tabs
#Fr	Tx	Ty	Tz	Rx	Ry	Rz	SF
[MASTER]
1 0.000003 -0.000000 -0.000429 0.001660 0.001660 0.001660 0.000429
2 0.000003 -0.000004 -56.194263 0.001660 0.001660 0.001660 56.194263
[root]
1 -16.502304 9.364128 1448.320068 -91.728912 -11.584512 -89.471634 1448.444336
2 -16.502304 8.297158 1448.454834 -91.785484 -13.249425 -89.258362 1448.572632
[chest]
1 -84.512650 -34.090519 0.000000 -2.170494 -0.006437 168.239624 91.129311
2 -84.512650 -34.090519 0.000000 -2.171072 -0.191782 169.992203 91.129311
[L_mid_tent01]
1 27.299099 22.179106 -249.918701 -20.661383 12.026062 12.983069 252.381683
2 27.299097 22.179102 -249.918701 -18.806366 13.984653 18.974878 252.381683
[R_mid_tent01]
1 23.228794 24.509907 226.238495 -165.192230 -17.956045 24.056826 228.744751
2 23.228794 24.509907 226.238495 -168.777740 -19.967272 30.274202 228.744751
[spine01]
1 -0.361383 -0.195265 0.000000 0.001947 0.001312 22.051838 0.410763
2 -0.361383 -0.195265 0.000000 0.001937 0.001326 21.216013 0.410763
[Bip01_Neck]
1 165.484543 71.581718 0.000119 176.643677 -1.657967 43.431911 180.302734
2 165.484543 71.581718 0.000119 176.643677 -1.657967 43.431911 180.302734
[L_humerus]
1 -13.983130 -135.272980 -120.471481 -5.480109 68.873459 84.573524 181.680161
2 -13.983130 -135.272980 -120.471481 -1.219154 74.510406 88.687775 181.680161
[R_humerus]
1 -13.983309 -135.273102 125.287651 27.897182 -69.888855 67.752312 184.909012
2 -13.983309 -135.273102 125.287651 31.709867 -75.843636 63.829655 184.909012
[weapon_bone]
1 235.964890 -300.705902 0.000000 0.000000 -89.951546 -128.212341 382.234833
2 235.964890 -300.705902 0.000000 0.000000 -89.951546 -128.212341 382.234833
[Bip01_Head]
1 213.444122 185.715332 11.776947 4.962490 2.797846 -43.898750 283.173584
2 213.443848 185.716187 11.766321 4.962490 2.797846 -43.898743 283.173492
[eye_left_bone]
1 -24.626970 125.451866 -64.772606 0.000000 -90.000000 -99.840431 143.318359
2 -24.626970 125.451866 -64.772606 0.000000 -90.000000 -99.840431 143.318359
[eye_right_bone]
1 -24.626970 125.451866 64.327362 0.000000 -89.965736 80.156380 143.117676
2 -24.626970 125.451866 64.327362 0.000000 -89.972023 80.156380 143.117676
[L_forearm]
1 322.776093 0.000000 -0.000119 0.000396 -0.002314 -109.419968 322.776093
2 322.776093 0.000000 -0.000119 0.000374 -0.002317 -108.331711 322.776093
[L_front_hand]
1 241.149185 -0.042021 -3.300071 -178.667953 -1.835447 -27.422350 241.171753
2 241.149185 -0.042021 -3.300071 -178.667953 -1.835447 -27.422342 241.171753
[L_weapon_bone]
1 156.183838 0.000000 0.000000 0.000014 0.000007 0.000001 156.183838
2 156.183838 0.000000 0.000000 0.000014 0.000007 0.000001 156.183838
[L_front_hand01_01]
1 86.095154 20.947098 -0.655860 -0.366594 -0.477154 75.385574 88.609184
2 86.095154 20.947098 -0.655860 -0.366594 -0.477154 75.385574 88.609184
[L_front_hand02_01]
1 86.935165 -11.437475 24.513514 154.399796 -59.883835 -61.369587 91.046425
2 86.935165 -11.437475 24.513514 154.399796 -59.883835 -61.369587 91.046425
[L_front_hand03_01]
1 86.637497 -14.123976 -20.424902 -153.913849 58.118122 -62.702866 90.126129
2 86.637497 -14.123976 -20.424902 -153.913849 58.118130 -62.702866 90.126129
[L_front_hand01_02]
1 71.020905 -0.000179 0.000030 0.000334 -0.002323 -106.379684 71.020905
2 71.020905 -0.000179 0.000030 0.000334 -0.002323 -106.379700 71.020905
[L_front_hand02_02]
1 71.020927 -0.000119 0.000060 0.000334 -0.002323 -106.379684 71.020927
2 71.020927 -0.000119 0.000060 0.000334 -0.002323 -106.379700 71.020927
[L_front_hand03_02]
1 71.020905 -0.000060 0.000060 0.000334 -0.002323 -106.379684 71.020905
2 71.020905 -0.000060 0.000060 0.000334 -0.002323 -106.379700 71.020905
[R_forearm]
1 322.776428 -0.000060 0.000030 0.202103 0.065158 -108.062805 322.776428
2 322.776428 -0.000060 0.000030 0.203746 0.056313 -106.971329 322.776428
[R_front_hand]
1 238.847015 -0.006795 2.210259 -2.635298 -10.645461 -26.312506 238.857239
2 238.847015 -0.006795 2.210259 -2.635298 -10.645461 -26.312506 238.857239
[R_weapon_bone]
1 155.664093 0.002503 -0.000030 0.003487 0.001180 -90.988930 155.664078
2 155.664093 0.002503 -0.000030 0.003487 0.001180 -90.988930 155.664078
[R_front_hand01_01]
1 87.624611 14.231146 22.918642 -154.633499 -59.950619 61.746044 91.683487
2 87.624611 14.231146 22.918642 -154.633484 -59.950607 61.746033 91.683487
[R_front_hand02_01]
1 89.356956 14.367283 -19.491137 154.602661 58.302849 63.744389 92.579636
2 89.356956 14.367283 -19.491137 154.602661 58.302849 63.744389 92.579636
[R_front_hand03_01]
1 87.286232 -22.307278 -0.143439 0.162155 -0.423168 -75.767921 90.091743
2 87.286232 -22.307278 -0.143439 0.162155 -0.423168 -75.767921 90.091743
[R_front_hand01_02]
1 71.020905 0.000060 0.000119 0.002323 -0.000334 106.381714 71.020905
2 71.020905 0.000060 0.000119 0.002323 -0.000334 106.381714 71.020905
[R_front_hand02_02]
1 71.020844 -0.000030 -0.000119 0.002323 -0.000334 106.381714 71.020836
2 71.020844 -0.000030 -0.000119 0.002323 -0.000334 106.381714 71.020836
[R_front_hand03_02]
1 71.020905 0.000000 0.000030 0.002323 -0.000334 106.381714 71.020905
2 71.020905 0.000000 0.000030 0.002323 -0.000334 106.381714 71.020905
[null_rope01_connect]
1 328.732483 0.000000 -0.000238 -154.483337 -64.791336 -118.914360 328.732483
2 328.732483 0.000000 -0.000238 -152.865585 -65.347969 -124.937096 328.732483
[Rope1_Seg01]
1 0.000038 -0.000038 0.000000 42.088108 3.949267 -123.309242 0.000054
2 0.000037 -0.000039 0.000014 42.285820 -0.678935 -122.729187 0.000056
[Rope1_Seg02]
1 139.999863 -0.000179 0.000000 10.491640 4.243954 3.816236 139.999863
2 139.999863 -0.000179 0.000000 11.477272 5.483215 2.220217 139.999863
[Rope1_Seg03]
1 139.999924 0.000060 -0.000060 9.393452 5.269485 2.422002 139.999924
2 139.999924 0.000060 -0.000060 7.005529 6.027858 -0.537040 139.999924
[Rope1_Seg04]
1 139.999924 -0.000060 -0.000119 9.336335 6.557470 1.994011 139.999924
2 139.999924 -0.000060 -0.000119 7.572658 6.355569 0.656020 139.999924
[Rope1_Seg05]
1 139.999832 0.000119 -0.000060 11.109748 4.983605 5.571435 139.999832
2 139.999832 0.000119 -0.000060 12.175661 4.443710 6.994829 139.999832
[Rope1_Seg06]
1 139.999954 0.000119 -0.000060 5.472752 2.707348 2.563049 139.999954
2 139.999954 0.000119 -0.000060 6.214865 2.859098 2.951529 139.999954
[Rope1_Seg07]
1 139.999985 0.000060 0.000000 2.821635 1.743569 0.989642 139.999985
2 139.999985 0.000060 0.000000 3.266644 1.857434 1.207610 139.999985
[Rope1_Seg09]
1 121.602913 0.000119 -0.000089 -89.793175 -1.359789 0.847147 121.602913
2 121.602913 0.000119 -0.000089 -89.793175 -1.359789 0.847147 121.602913
[L_mid_hand01]
1 103.859421 1.038730 8.195221 130.544373 -67.584534 -38.866943 104.187431
2 103.859421 1.038730 8.195221 130.544342 -67.584518 -38.866936 104.187431
[L_mid_hand02]
1 105.572853 -4.139662 -10.864139 -168.923172 43.409309 -73.498886 106.211075
2 105.572853 -4.139662 -10.864139 -168.923172 43.409309 -73.498886 106.211075
[L_mid_hand03]
1 104.641464 17.579376 -3.913581 -6.012627 17.808174 74.893669 106.179977
2 104.641464 17.579376 -3.913581 -6.012627 17.808174 74.893669 106.179977
[null_rope02_connect]
1 328.732849 0.000179 -0.000119 -140.208755 68.099251 -35.150570 328.732849
2 328.732849 0.000179 -0.000119 -133.610123 68.211708 -24.326763 328.732849
[Rope2_Seg01]
1 0.000076 0.000114 0.000000 25.129723 12.301702 -42.080429 0.000138
2 0.000071 0.000114 0.000000 22.356962 9.060308 -43.497379 0.000134
[Rope2_Seg02]
1 139.999741 -0.000060 -0.000119 -24.562380 -11.409678 -9.070363 139.999756
2 139.999741 -0.000060 -0.000119 -26.214491 -9.949425 -9.351180 139.999756
[Rope2_Seg03]
1 140.000107 0.000030 0.000000 -21.220808 -7.071804 -8.301400 140.000107
2 140.000107 0.000030 0.000000 -19.127422 -5.515994 -7.350135 140.000107
[Rope2_Seg04]
1 139.999802 0.000000 -0.000060 -14.671588 1.379499 -10.467659 139.999802
2 139.999802 0.000000 -0.000060 -12.866152 3.389731 -10.126666 139.999802
[Rope2_Seg05]
1 139.999985 -0.000060 0.000119 -3.638860 8.187254 -6.716298 139.999985
2 139.999985 -0.000060 0.000119 -3.449464 7.641898 -6.321230 139.999985
[Rope2_Seg06]
1 139.999893 -0.000030 -0.000119 -1.405908 4.034588 -3.275115 139.999893
2 139.999893 -0.000030 -0.000119 -1.470354 3.411610 -3.055982 139.999893
[Rope2_Seg07]
1 139.999893 0.000060 -0.000060 -0.833265 2.223258 -1.978465 139.999893
2 139.999893 0.000060 -0.000060 -0.819132 2.090636 -1.873305 139.999893
[Rope2_Seg09]
1 121.338966 0.000089 -0.000060 33.793236 -1.359788 -0.847141 121.338966
2 121.338966 0.000089 -0.000060 33.793236 -1.359788 -0.847141 121.338966
[R_mid_hand01]
1 104.680779 11.144459 -10.335981 -16.212063 45.237247 70.462852 105.778534
2 104.680779 11.144459 -10.335981 -16.212063 45.237247 70.462852 105.778534
[R_mid_hand02]
1 104.070427 2.443552 8.231699 49.067368 -67.749771 39.286453 104.424065
2 104.070427 2.443552 8.231699 49.067375 -67.749794 39.286461 104.424065
[R_mid_hand03]
1 106.028137 -11.221827 -5.996406 -177.101105 15.551026 -76.585571 106.788818
2 106.028137 -11.221827 -5.996406 -177.101105 15.551026 -76.585571 106.788818
[spine02]
1 129.756927 0.001550 0.000119 0.360060 -4.044798 -12.915046 129.756927
2 129.756927 0.001550 0.000119 0.245437 -4.055213 -11.343400 129.756927
[spine03]
1 78.614075 0.081744 -4.899007 1.896494 3.831288 16.473043 78.766617
2 78.614075 0.081744 -4.899006 1.830797 3.861748 15.496854 78.766617
[pelvis]
1 169.435242 0.051022 0.000000 -0.060465 -0.180225 14.087915 169.435257
2 169.435242 0.051022 0.000000 -0.052430 -0.181763 12.111548 169.435257
[null_rope03_connect]
1 -1.257226 -2.466202 137.391083 156.329544 -89.381348 -94.430130 137.418976
2 -1.257226 -2.466202 137.391083 149.763168 -89.160706 -83.965492 137.418976
[null_rope04_connect]
1 -1.259640 -2.480268 -137.844437 156.329544 -89.381348 -94.430130 137.872513
2 -1.259640 -2.480268 -137.844437 149.763168 -89.160706 -83.965492 137.872513
[Rope3_Seg01]
1 0.000000 0.000000 0.000000 15.483513 22.394043 -85.002159 0.000000
2 0.000000 0.000000 0.000000 15.429488 21.550514 -85.160263 0.000000
[Rope3_Seg02]
1 139.999924 -0.000119 0.000060 0.042094 0.203327 3.266338 139.999924
2 139.999924 -0.000119 0.000060 0.097439 1.443458 3.673504 139.999924
[Rope3_Seg03]
1 139.999924 -0.000119 0.000119 -0.115770 0.035736 4.320236 139.999924
2 139.999924 -0.000119 0.000119 -0.040109 1.394604 5.107189 139.999924
[Rope3_Seg04]
1 139.999924 0.000119 0.000000 -0.538268 -0.193255 5.940129 139.999924
2 139.999924 0.000119 0.000000 -0.385698 1.419770 6.311295 139.999924
[Rope3_Seg05]
1 139.999924 -0.000238 0.000060 0.727815 1.426662 -5.303379 139.999924
2 139.999924 -0.000238 0.000060 1.100859 1.682305 -6.797449 139.999924
[Rope3_Seg06]
1 139.999893 -0.000119 -0.000060 0.743988 1.407374 -7.344249 139.999893
2 139.999893 -0.000119 -0.000060 0.916164 1.013822 -7.553266 139.999893
[Rope3_Seg07]
1 139.999771 0.000060 -0.000119 0.517043 0.679094 -3.200591 139.999771
2 139.999771 0.000060 -0.000119 0.585797 0.647717 -3.452685 139.999771
[Rope3_Seg08]
1 139.999985 -0.000060 0.000000 0.498724 0.416241 -2.059022 139.999985
2 139.999985 -0.000060 0.000000 0.538299 0.388001 -2.212358 139.999985
[Rope3_Seg09]
1 90.185997 -0.000179 -0.000060 89.793228 -1.359877 -0.847183 90.185997
2 90.185997 -0.000179 -0.000060 89.793228 -1.359877 -0.847183 90.185997
[R_rear_hand01]
1 103.366196 -6.073594 -10.757982 -177.714203 24.565960 -73.910950 104.101845
2 103.366196 -6.073594 -10.757982 -177.714203 24.565960 -73.910950 104.101845
[R_rear_hand02]
1 100.509819 12.039542 -7.992327 -12.874829 36.868488 72.167213 101.543350
2 100.509819 12.039542 -7.992327 -12.874829 36.868488 72.167213 101.543350
[R_rear_hand03]
1 101.539970 5.215704 5.435467 71.484581 -71.816628 21.513813 101.819031
2 101.539970 5.215704 5.435467 71.484589 -71.816643 21.513813 101.819031
[Rope4_Seg01]
1 0.000010 0.000038 -0.000153 -106.078125 28.919199 -114.661774 0.000158
2 0.000010 0.000037 -0.000149 -105.430031 28.051083 -113.798950 0.000154
[Rope4_Seg02]
1 139.999985 0.000060 0.000119 0.431679 -3.886644 -2.898305 139.999985
2 139.999985 0.000060 0.000119 0.387078 -3.418241 -2.632514 139.999985
[Rope4_Seg03]
1 139.999924 0.000000 -0.000238 0.524898 -5.717379 -4.224696 139.999924
2 139.999924 0.000000 -0.000238 0.469971 -4.997105 -3.806620 139.999924
[Rope4_Seg04]
1 139.999985 0.000000 0.000119 1.932453 -17.626656 -14.812556 139.999985
2 139.999985 0.000000 0.000119 1.722662 -15.941286 -13.876676 139.999985
[Rope4_Seg05]
1 139.999802 -0.000060 -0.000119 0.699252 0.602848 2.824770 139.999802
2 139.999802 -0.000060 -0.000119 0.755840 2.161054 4.290837 139.999802
[Rope4_Seg06]
1 139.999924 0.000000 0.000060 2.879317 16.740335 16.292585 139.999924
2 139.999924 0.000000 0.000060 1.955610 14.583390 14.641517 139.999924
[Rope4_Seg07]
1 139.999802 0.000000 0.000000 -0.110753 4.386912 4.304332 139.999802
2 139.999802 0.000000 0.000000 -0.180209 3.784323 3.935400 139.999802
[Rope4_Seg08]
1 139.999924 0.000000 0.000119 -1.723026 2.322060 2.302008 139.999924
2 139.999924 0.000000 0.000119 -1.741426 2.037834 2.137616 139.999924
[Rope4_Seg09]
1 90.185791 0.000060 0.000060 -135.617828 2.228885 0.850567 90.185791
2 90.185791 0.000060 0.000060 -135.617828 2.228885 0.850567 90.185791
[L_rear_hand01]
1 101.696655 -8.392275 -7.654577 -12.874829 -36.868488 107.832764 102.329041
2 101.696655 -8.392275 -7.654577 -12.874829 -36.868488 107.832764 102.329041
[L_rear_hand02]
1 102.726799 -1.568258 5.773216 71.484581 71.816628 158.486160 102.900848
2 102.726799 -1.568258 5.773216 71.484589 71.816643 158.486160 102.900848
[L_rear_hand03]
1 104.552910 9.721220 -10.420293 -177.714203 -24.565960 -106.089035 105.519653
2 104.552910 9.721220 -10.420293 -177.714203 -24.565960 -106.089035 105.519653
